<svg width="177" height="42" viewBox="0 0 177 42" fill="none" xmlns="http://www.w3.org/2000/svg">
<path d="M36.1583 20.9413C36.1583 19.0789 36.5783 17.4081 37.4182 15.9291C38.2581 14.4319 39.3993 13.2633 40.8418 12.4234C42.3025 11.5835 43.9185 11.1635 45.6896 11.1635C47.7712 11.1635 49.588 11.6656 51.14 12.6699C52.692 13.6741 53.8241 15.0984 54.5362 16.9425H51.5508C51.0213 15.7922 50.2544 14.9066 49.2502 14.2858C48.2642 13.665 47.0773 13.3546 45.6896 13.3546C44.3567 13.3546 43.1607 13.665 42.1017 14.2858C41.0427 14.9066 40.2119 15.7922 39.6093 16.9425C39.0067 18.0746 38.7055 19.4075 38.7055 20.9413C38.7055 22.4568 39.0067 23.7897 39.6093 24.9401C40.2119 26.0721 41.0427 26.9486 42.1017 27.5694C43.1607 28.1902 44.3567 28.5006 45.6896 28.5006C47.0773 28.5006 48.2642 28.1993 49.2502 27.5968C50.2544 26.976 51.0213 26.0904 51.5508 24.9401H54.5362C53.8241 26.766 52.692 28.1811 51.14 29.1853C49.588 30.1713 47.7712 30.6643 45.6896 30.6643C43.9185 30.6643 42.3025 30.2535 40.8418 29.4318C39.3993 28.5919 38.2581 27.4325 37.4182 25.9535C36.5783 24.4745 36.1583 22.8037 36.1583 20.9413ZM59.8075 13.0533C59.3327 13.0533 58.931 12.889 58.6024 12.5603C58.2737 12.2317 58.1094 11.83 58.1094 11.3552C58.1094 10.8805 58.2737 10.4788 58.6024 10.1501C58.931 9.82144 59.3327 9.65711 59.8075 9.65711C60.264 9.65711 60.6474 9.82144 60.9578 10.1501C61.2865 10.4788 61.4508 10.8805 61.4508 11.3552C61.4508 11.83 61.2865 12.2317 60.9578 12.5603C60.6474 12.889 60.264 13.0533 59.8075 13.0533ZM61.0126 15.4909V30.5H58.5202V15.4909H61.0126ZM68.0267 17.9285C68.4649 17.0703 69.0857 16.4039 69.8891 15.9291C70.7108 15.4544 71.7059 15.217 72.8745 15.217V17.7916H72.2172C69.4235 17.7916 68.0267 19.3071 68.0267 22.3381V30.5H65.5343V15.4909H68.0267V17.9285ZM75.0943 22.9681C75.0943 21.416 75.4047 20.0649 76.0255 18.9145C76.6463 17.7459 77.5045 16.8421 78.6001 16.203C79.7139 15.564 80.9829 15.2444 82.4071 15.2444C84.2513 15.2444 85.7668 15.6918 86.9537 16.5865C88.1588 17.4812 88.953 18.7228 89.3365 20.3114H86.6524C86.3968 19.3984 85.8946 18.6772 85.146 18.1476C84.4156 17.6181 83.5027 17.3534 82.4071 17.3534C80.9829 17.3534 79.8326 17.8464 78.9561 18.8324C78.0797 19.8001 77.6415 21.1787 77.6415 22.9681C77.6415 24.7757 78.0797 26.1726 78.9561 27.1586C79.8326 28.1446 80.9829 28.6376 82.4071 28.6376C83.5027 28.6376 84.4156 28.3819 85.146 27.8707C85.8764 27.3594 86.3785 26.629 86.6524 25.6796H89.3365C88.9348 27.2133 88.1314 28.4458 86.9263 29.3771C85.7212 30.29 84.2148 30.7465 82.4071 30.7465C80.9829 30.7465 79.7139 30.427 78.6001 29.7879C77.5045 29.1488 76.6463 28.245 76.0255 27.0764C75.4047 25.9078 75.0943 24.5384 75.0943 22.9681ZM95.4284 10.2323V30.5H92.936V10.2323H95.4284ZM113.644 22.4203C113.644 22.895 113.617 23.3972 113.562 23.9267H101.566C101.657 25.4057 102.159 26.5651 103.072 27.4051C104.004 28.2267 105.127 28.6376 106.441 28.6376C107.519 28.6376 108.413 28.3911 109.125 27.8981C109.856 27.3868 110.367 26.7112 110.659 25.8713H113.343C112.942 27.3138 112.138 28.4915 110.933 29.4044C109.728 30.2991 108.231 30.7465 106.441 30.7465C105.017 30.7465 103.739 30.427 102.607 29.7879C101.493 29.1488 100.617 28.245 99.9775 27.0764C99.3384 25.8895 99.0189 24.5201 99.0189 22.9681C99.0189 21.416 99.3293 20.0557 99.9501 18.8871C100.571 17.7185 101.438 16.8238 102.552 16.203C103.684 15.564 104.981 15.2444 106.441 15.2444C107.865 15.2444 109.125 15.5548 110.221 16.1756C111.316 16.7965 112.156 17.6546 112.741 18.7502C113.343 19.8275 113.644 21.0509 113.644 22.4203ZM111.07 21.8999C111.07 20.9504 110.86 20.1379 110.44 19.4623C110.02 18.7685 109.445 18.2481 108.715 17.9011C108.002 17.536 107.208 17.3534 106.332 17.3534C105.072 17.3534 103.995 17.7551 103.1 18.5585C102.223 19.3619 101.721 20.4757 101.593 21.8999H111.07ZM130.837 30.6917C129.577 30.6917 128.445 30.4726 127.441 30.0344C126.455 29.5779 125.679 28.9571 125.113 28.172C124.547 27.3685 124.255 26.4465 124.236 25.4057H126.893C126.984 26.3004 127.349 27.0581 127.989 27.679C128.646 28.2815 129.595 28.5828 130.837 28.5828C132.024 28.5828 132.955 28.2906 133.631 27.7063C134.324 27.1038 134.671 26.3369 134.671 25.4057C134.671 24.6753 134.471 24.0819 134.069 23.6254C133.667 23.1689 133.165 22.822 132.562 22.5846C131.96 22.3473 131.147 22.0916 130.125 21.8177C128.865 21.4891 127.852 21.1604 127.085 20.8317C126.336 20.5031 125.688 19.9918 125.14 19.298C124.611 18.5859 124.346 17.6364 124.346 16.4495C124.346 15.4088 124.611 14.4867 125.14 13.6833C125.67 12.8799 126.409 12.259 127.359 11.8208C128.326 11.3826 129.431 11.1635 130.673 11.1635C132.462 11.1635 133.923 11.6108 135.055 12.5055C136.205 13.4002 136.853 14.5871 136.999 16.0661H134.261C134.169 15.3357 133.786 14.6966 133.11 14.1489C132.435 13.5828 131.54 13.2998 130.426 13.2998C129.385 13.2998 128.536 13.5737 127.879 14.1215C127.222 14.651 126.893 15.3996 126.893 16.3674C126.893 17.0612 127.085 17.6273 127.468 18.0655C127.87 18.5037 128.354 18.8415 128.92 19.0789C129.504 19.298 130.317 19.5536 131.357 19.8457C132.617 20.1927 133.631 20.5396 134.398 20.8865C135.164 21.2152 135.822 21.7356 136.37 22.4477C136.917 23.1415 137.191 24.091 137.191 25.2961C137.191 26.2273 136.945 27.1038 136.452 27.9255C135.959 28.7471 135.228 29.4136 134.261 29.9248C133.293 30.4361 132.152 30.6917 130.837 30.6917ZM147.679 30.7465C146.273 30.7465 144.995 30.427 143.844 29.7879C142.712 29.1488 141.818 28.245 141.16 27.0764C140.521 25.8895 140.202 24.5201 140.202 22.9681C140.202 21.4343 140.53 20.0831 141.188 18.9145C141.863 17.7277 142.776 16.8238 143.926 16.203C145.077 15.564 146.364 15.2444 147.788 15.2444C149.213 15.2444 150.5 15.564 151.65 16.203C152.8 16.8238 153.704 17.7185 154.362 18.8871C155.037 20.0557 155.375 21.416 155.375 22.9681C155.375 24.5201 155.028 25.8895 154.334 27.0764C153.659 28.245 152.737 29.1488 151.568 29.7879C150.399 30.427 149.103 30.7465 147.679 30.7465ZM147.679 28.5554C148.573 28.5554 149.413 28.3454 150.199 27.9255C150.984 27.5055 151.614 26.8755 152.088 26.0356C152.581 25.1957 152.828 24.1732 152.828 22.9681C152.828 21.763 152.59 20.7404 152.116 19.9005C151.641 19.0606 151.02 18.4398 150.253 18.0381C149.486 17.6181 148.656 17.4081 147.761 17.4081C146.848 17.4081 146.008 17.6181 145.241 18.0381C144.493 18.4398 143.89 19.0606 143.433 19.9005C142.977 20.7404 142.749 21.763 142.749 22.9681C142.749 24.1914 142.968 25.2231 143.406 26.063C143.863 26.9029 144.465 27.5329 145.214 27.9528C145.962 28.3545 146.784 28.5554 147.679 28.5554ZM165.034 17.5451H161.884V30.5H159.392V17.5451H157.447V15.4909H159.392V14.4228C159.392 12.7429 159.821 11.5195 160.679 10.7527C161.555 9.96751 162.952 9.57494 164.869 9.57494V11.6565C163.774 11.6565 162.998 11.8756 162.541 12.3138C162.103 12.7338 161.884 13.4368 161.884 14.4228V15.4909H165.034V17.5451ZM171.254 17.5451V26.3917C171.254 27.122 171.409 27.6424 171.719 27.9528C172.03 28.245 172.568 28.3911 173.335 28.3911H175.17V30.5H172.924C171.537 30.5 170.496 30.1805 169.802 29.5414C169.108 28.9023 168.761 27.8524 168.761 26.3917V17.5451H166.817V15.4909H168.761V11.7113H171.254V15.4909H175.17V17.5451H171.254Z" fill="white"/>
<path d="M27.0187 23.0398C28.6076 23.9629 29.1694 26.0302 27.9387 27.3948C26.3288 29.1797 24.3282 30.5907 22.0756 31.5074C18.7887 32.8449 15.1508 33.0541 11.7322 32.1022C8.3136 31.1504 5.30739 29.0912 3.18466 26.2474C1.06194 23.4036 -0.0573268 19.936 0.0022604 16.3878C0.0618476 12.8396 1.29692 9.41151 3.51394 6.64062C5.73095 3.86972 8.80462 1.91266 12.2533 1.07611C15.7019 0.239569 19.3307 0.570817 22.5709 2.01795C24.7914 3.0097 26.7435 4.48715 28.2925 6.32512C29.4767 7.73022 28.8458 9.77748 27.2269 10.6467C25.6079 11.516 23.6173 10.8428 22.2398 9.62659C21.5325 9.00213 20.7304 8.4838 19.8572 8.09385C17.9619 7.24734 15.8392 7.05358 13.8219 7.54292C11.8046 8.03226 10.0067 9.17705 8.70983 10.7979C7.41298 12.4187 6.69052 14.424 6.65566 16.4995C6.62081 18.5751 7.27553 20.6035 8.51722 22.267C9.75891 23.9304 11.5174 25.135 13.5171 25.6918C15.5169 26.2486 17.6448 26.1262 19.5675 25.3438C20.4533 24.9834 21.2724 24.4923 22.0003 23.8919C23.4178 22.7227 25.4299 22.1167 27.0187 23.0398Z" fill="#6C49EC"/>
<path d="M20.6813 19.3577C21.6534 19.9224 21.9986 21.1963 21.1914 21.9788C20.5136 22.6357 19.7121 23.1616 18.8262 23.5221C17.3066 24.1404 15.6249 24.2372 14.0445 23.7971C12.464 23.3571 11.0743 22.4051 10.0929 21.0904C9.1116 19.7758 8.59416 18.1727 8.62171 16.5323C8.64926 14.892 9.22023 13.3072 10.2452 12.0262C11.2701 10.7452 12.691 9.84049 14.2853 9.45376C15.8796 9.06703 17.5572 9.22016 19.0551 9.88917C19.9284 10.2792 20.7119 10.8317 21.3672 11.5111C22.1477 12.3202 21.7599 13.5817 20.7694 14.1135C19.7789 14.6453 18.5448 14.1842 17.5419 13.6763C17.4936 13.6519 17.4446 13.6285 17.395 13.6064C16.7198 13.3048 15.9637 13.2358 15.245 13.4101C14.5264 13.5844 13.8859 13.9922 13.424 14.5696C12.962 15.147 12.7046 15.8613 12.6922 16.6007C12.6798 17.3401 12.913 18.0626 13.3554 18.6552C13.7977 19.2478 14.4241 19.6769 15.1365 19.8752C15.8488 20.0736 16.6069 20.03 17.2918 19.7513C17.3421 19.7308 17.3919 19.7091 17.441 19.6863C18.4604 19.2124 19.7093 18.7929 20.6813 19.3577Z" fill="#19D7AA"/>
</svg>
