<svg width="177" height="42" viewBox="0 0 177 42" fill="none" xmlns="http://www.w3.org/2000/svg">
<path d="M36.1622 20.9413C36.1622 19.0789 36.5821 17.4081 37.422 15.9291C38.262 14.4319 39.4032 13.2633 40.8456 12.4234C42.3064 11.5835 43.9223 11.1635 45.6935 11.1635C47.775 11.1635 49.5918 11.6656 51.1438 12.6699C52.6959 13.6741 53.8279 15.0984 54.5401 16.9425H51.5547C51.0252 15.7922 50.2583 14.9066 49.254 14.2858C48.268 13.665 47.0812 13.3546 45.6935 13.3546C44.3605 13.3546 43.1646 13.665 42.1055 14.2858C41.0465 14.9066 40.2157 15.7922 39.6131 16.9425C39.0106 18.0746 38.7093 19.4075 38.7093 20.9413C38.7093 22.4568 39.0106 23.7897 39.6131 24.9401C40.2157 26.0721 41.0465 26.9486 42.1055 27.5694C43.1646 28.1902 44.3605 28.5006 45.6935 28.5006C47.0812 28.5006 48.268 28.1993 49.254 27.5968C50.2583 26.976 51.0252 26.0904 51.5547 24.9401H54.5401C53.8279 26.766 52.6959 28.1811 51.1438 29.1853C49.5918 30.1713 47.775 30.6643 45.6935 30.6643C43.9223 30.6643 42.3064 30.2535 40.8456 29.4318C39.4032 28.5919 38.262 27.4325 37.422 25.9535C36.5821 24.4745 36.1622 22.8037 36.1622 20.9413ZM59.8113 13.0533C59.3366 13.0533 58.9349 12.889 58.6062 12.5603C58.2776 12.2317 58.1132 11.83 58.1132 11.3552C58.1132 10.8805 58.2776 10.4788 58.6062 10.1501C58.9349 9.82144 59.3366 9.65711 59.8113 9.65711C60.2678 9.65711 60.6513 9.82144 60.9617 10.1501C61.2903 10.4788 61.4547 10.8805 61.4547 11.3552C61.4547 11.83 61.2903 12.2317 60.9617 12.5603C60.6513 12.889 60.2678 13.0533 59.8113 13.0533ZM61.0164 15.4909V30.5H58.5241V15.4909H61.0164ZM68.0305 17.9285C68.4688 17.0703 69.0896 16.4039 69.893 15.9291C70.7147 15.4544 71.7098 15.217 72.8784 15.217V17.7916H72.221C69.4274 17.7916 68.0305 19.3071 68.0305 22.3381V30.5H65.5382V15.4909H68.0305V17.9285ZM75.0981 22.9681C75.0981 21.416 75.4086 20.0649 76.0294 18.9145C76.6502 17.7459 77.5084 16.8421 78.6039 16.203C79.7177 15.564 80.9867 15.2444 82.411 15.2444C84.2551 15.2444 85.7707 15.6918 86.9575 16.5865C88.1626 17.4812 88.9569 18.7228 89.3403 20.3114H86.6562C86.4006 19.3984 85.8985 18.6772 85.1498 18.1476C84.4195 17.6181 83.5065 17.3534 82.411 17.3534C80.9867 17.3534 79.8364 17.8464 78.96 18.8324C78.0835 19.8001 77.6453 21.1787 77.6453 22.9681C77.6453 24.7757 78.0835 26.1726 78.96 27.1586C79.8364 28.1446 80.9867 28.6376 82.411 28.6376C83.5065 28.6376 84.4195 28.3819 85.1498 27.8707C85.8802 27.3594 86.3823 26.629 86.6562 25.6796H89.3403C88.9386 27.2133 88.1352 28.4458 86.9301 29.3771C85.725 30.29 84.2186 30.7465 82.411 30.7465C80.9867 30.7465 79.7177 30.427 78.6039 29.7879C77.5084 29.1488 76.6502 28.245 76.0294 27.0764C75.4086 25.9078 75.0981 24.5384 75.0981 22.9681ZM95.4322 10.2323V30.5H92.9398V10.2323H95.4322ZM113.648 22.4203C113.648 22.895 113.621 23.3972 113.566 23.9267H101.57C101.661 25.4057 102.163 26.5651 103.076 27.4051C104.007 28.2267 105.13 28.6376 106.445 28.6376C107.522 28.6376 108.417 28.3911 109.129 27.8981C109.86 27.3868 110.371 26.7112 110.663 25.8713H113.347C112.945 27.3138 112.142 28.4915 110.937 29.4044C109.732 30.2991 108.234 30.7465 106.445 30.7465C105.021 30.7465 103.743 30.427 102.611 29.7879C101.497 29.1488 100.62 28.245 99.9813 27.0764C99.3422 25.8895 99.0227 24.5201 99.0227 22.9681C99.0227 21.416 99.3331 20.0557 99.9539 18.8871C100.575 17.7185 101.442 16.8238 102.556 16.203C103.688 15.564 104.984 15.2444 106.445 15.2444C107.869 15.2444 109.129 15.5548 110.225 16.1756C111.32 16.7965 112.16 17.6546 112.745 18.7502C113.347 19.8275 113.648 21.0509 113.648 22.4203ZM111.074 21.8999C111.074 20.9504 110.864 20.1379 110.444 19.4623C110.024 18.7685 109.449 18.2481 108.718 17.9011C108.006 17.536 107.212 17.3534 106.336 17.3534C105.076 17.3534 103.998 17.7551 103.104 18.5585C102.227 19.3619 101.725 20.4757 101.597 21.8999H111.074ZM130.841 30.6917C129.581 30.6917 128.449 30.4726 127.445 30.0344C126.459 29.5779 125.683 28.9571 125.117 28.172C124.551 27.3685 124.258 26.4465 124.24 25.4057H126.897C126.988 26.3004 127.353 27.0581 127.992 27.679C128.65 28.2815 129.599 28.5828 130.841 28.5828C132.028 28.5828 132.959 28.2906 133.634 27.7063C134.328 27.1038 134.675 26.3369 134.675 25.4057C134.675 24.6753 134.474 24.0819 134.073 23.6254C133.671 23.1689 133.169 22.822 132.566 22.5846C131.964 22.3473 131.151 22.0916 130.129 21.8177C128.869 21.4891 127.855 21.1604 127.089 20.8317C126.34 20.5031 125.692 19.9918 125.144 19.298C124.614 18.5859 124.35 17.6364 124.35 16.4495C124.35 15.4088 124.614 14.4867 125.144 13.6833C125.673 12.8799 126.413 12.259 127.362 11.8208C128.33 11.3826 129.435 11.1635 130.676 11.1635C132.466 11.1635 133.927 11.6108 135.059 12.5055C136.209 13.4002 136.857 14.5871 137.003 16.0661H134.264C134.173 15.3357 133.79 14.6966 133.114 14.1489C132.439 13.5828 131.544 13.2998 130.43 13.2998C129.389 13.2998 128.54 13.5737 127.883 14.1215C127.225 14.651 126.897 15.3996 126.897 16.3674C126.897 17.0612 127.089 17.6273 127.472 18.0655C127.874 18.5037 128.358 18.8415 128.924 19.0789C129.508 19.298 130.32 19.5536 131.361 19.8457C132.621 20.1927 133.634 20.5396 134.401 20.8865C135.168 21.2152 135.826 21.7356 136.373 22.4477C136.921 23.1415 137.195 24.091 137.195 25.2961C137.195 26.2273 136.949 27.1038 136.456 27.9255C135.963 28.7471 135.232 29.4136 134.264 29.9248C133.297 30.4361 132.155 30.6917 130.841 30.6917ZM147.683 30.7465C146.277 30.7465 144.998 30.427 143.848 29.7879C142.716 29.1488 141.821 28.245 141.164 27.0764C140.525 25.8895 140.205 24.5201 140.205 22.9681C140.205 21.4343 140.534 20.0831 141.191 18.9145C141.867 17.7277 142.78 16.8238 143.93 16.203C145.081 15.564 146.368 15.2444 147.792 15.2444C149.216 15.2444 150.504 15.564 151.654 16.203C152.804 16.8238 153.708 17.7185 154.365 18.8871C155.041 20.0557 155.379 21.416 155.379 22.9681C155.379 24.5201 155.032 25.8895 154.338 27.0764C153.662 28.245 152.74 29.1488 151.572 29.7879C150.403 30.427 149.107 30.7465 147.683 30.7465ZM147.683 28.5554C148.577 28.5554 149.417 28.3454 150.202 27.9255C150.988 27.5055 151.617 26.8755 152.092 26.0356C152.585 25.1957 152.832 24.1732 152.832 22.9681C152.832 21.763 152.594 20.7404 152.12 19.9005C151.645 19.0606 151.024 18.4398 150.257 18.0381C149.49 17.6181 148.659 17.4081 147.765 17.4081C146.852 17.4081 146.012 17.6181 145.245 18.0381C144.496 18.4398 143.894 19.0606 143.437 19.9005C142.981 20.7404 142.753 21.763 142.753 22.9681C142.753 24.1914 142.972 25.2231 143.41 26.063C143.866 26.9029 144.469 27.5329 145.218 27.9528C145.966 28.3545 146.788 28.5554 147.683 28.5554ZM165.037 17.5451H161.888V30.5H159.395V17.5451H157.451V15.4909H159.395V14.4228C159.395 12.7429 159.824 11.5195 160.683 10.7527C161.559 9.96751 162.956 9.57494 164.873 9.57494V11.6565C163.778 11.6565 163.002 11.8756 162.545 12.3138C162.107 12.7338 161.888 13.4368 161.888 14.4228V15.4909H165.037V17.5451ZM171.258 17.5451V26.3917C171.258 27.122 171.413 27.6424 171.723 27.9528C172.034 28.245 172.572 28.3911 173.339 28.3911H175.174V30.5H172.928C171.541 30.5 170.5 30.1805 169.806 29.5414C169.112 28.9023 168.765 27.8524 168.765 26.3917V17.5451H166.821V15.4909H168.765V11.7113H171.258V15.4909H175.174V17.5451H171.258Z" fill="black"/>
<path d="M27.0214 23.0396C28.6106 23.9628 29.1724 26.0305 27.9414 27.3951C26.3315 29.1799 24.3308 30.5908 22.078 31.5074C18.7907 32.8449 15.1525 33.0541 11.7335 32.1022C8.31451 31.1504 5.30797 29.0912 3.18501 26.2474C1.06206 23.4036 -0.0573331 19.936 0.00226065 16.3878C0.0618544 12.8396 1.29706 9.41151 3.51432 6.64062C5.73158 3.86972 8.80558 1.91266 12.2546 1.07611C15.7036 0.239569 19.3328 0.570817 22.5733 2.01795C24.794 3.00964 26.7462 4.48695 28.2953 6.32476C29.4798 7.72997 28.8488 9.77757 27.2296 10.6469C25.6106 11.5161 23.6199 10.8429 22.2424 9.6267C21.535 9.00219 20.7327 8.48383 19.8594 8.09385C17.9638 7.24734 15.841 7.05358 13.8234 7.54292C11.8059 8.03226 10.0078 9.17705 8.71078 10.7979C7.41379 12.4187 6.69125 14.424 6.65639 16.4995C6.62153 18.5751 7.27632 20.6035 8.51815 22.267C9.75998 23.9304 11.5187 25.135 13.5186 25.6918C15.5186 26.2486 17.6468 26.1262 19.5697 25.3438C20.4556 24.9833 21.2748 24.4922 22.0028 23.8918C23.4204 22.7226 25.4325 22.1166 27.0214 23.0396Z" fill="#5832E6"/>
<path d="M20.6834 19.3576C21.6556 19.9224 22.0009 21.1965 21.1935 21.9789C20.5157 22.6358 19.7141 23.1617 18.8282 23.5221C17.3085 24.1404 15.6266 24.2372 14.046 23.7971C12.4654 23.3571 11.0754 22.4051 10.094 21.0904C9.11257 19.7758 8.59508 18.1727 8.62263 16.5323C8.65018 14.892 9.22121 13.3072 10.2462 12.0262C11.2713 10.7452 12.6924 9.84049 14.2869 9.45376C15.8814 9.06703 17.5591 9.22016 19.0572 9.88917C19.9305 10.2792 20.714 10.8316 21.3693 11.5109C22.15 12.32 21.7621 13.5818 20.7715 14.1136C19.781 14.6454 18.5469 14.1843 17.5439 13.6764C17.4956 13.6519 17.4465 13.6286 17.3968 13.6064C16.7216 13.3048 15.9654 13.2358 15.2467 13.4101C14.528 13.5844 13.8874 13.9922 13.4254 14.5696C12.9634 15.147 12.706 15.8613 12.6936 16.6007C12.6812 17.3401 12.9144 18.0626 13.3568 18.6552C13.7992 19.2478 14.4257 19.6769 15.1381 19.8752C15.8505 20.0736 16.6086 20.03 17.2936 19.7513C17.344 19.7307 17.3938 19.7091 17.443 19.6862C18.4624 19.2123 19.7113 18.7929 20.6834 19.3576Z" fill="#16C098"/>
</svg>
