<svg width="31" height="30" viewBox="0 0 31 30" fill="none" xmlns="http://www.w3.org/2000/svg">
<path d="M11.75 23.75C11.75 24.8 11.9125 25.825 12.2125 26.775C7.4125 25.1125 3.7875 20.7 3.4125 15.5375C3.0375 10.05 6.2 4.92496 11.3125 2.77496C12.6375 2.22496 13.3125 2.62496 13.6 2.91246C13.875 3.18746 14.2625 3.84996 13.7125 5.11246C13.15 6.41246 12.875 7.78746 12.875 9.21246C12.8875 11.7625 13.8875 14.125 15.5125 15.9375C13.225 17.7625 11.75 20.5875 11.75 23.75Z" fill="#292D32"/>
<path d="M27.0125 22.15C24.5375 25.5125 20.6125 27.4875 16.425 27.4875C16.225 27.4875 16.025 27.475 15.825 27.4625C14.575 27.4125 13.3625 27.175 12.2125 26.775C11.9125 25.825 11.75 24.8 11.75 23.75C11.75 20.5875 13.225 17.7625 15.5125 15.9375C17.35 18 19.9875 19.3375 22.9 19.4625C23.6875 19.5 24.475 19.4375 25.25 19.3C26.65 19.05 27.2125 19.575 27.4125 19.9125C27.625 20.25 27.85 20.9875 27.0125 22.15Z" fill="#3366FF"/>
</svg>
