<svg width="31" height="30" viewBox="0 0 31 30" fill="none" xmlns="http://www.w3.org/2000/svg">
<path d="M13.1632 4.05991C13.3499 3.5983 13.6703 3.20298 14.0832 2.92462C14.4961 2.64627 14.9827 2.49756 15.4807 2.49756C15.9786 2.49756 16.4652 2.64627 16.8781 2.92462C17.291 3.20298 17.6114 3.5983 17.7982 4.05991C19.6466 4.56826 21.2771 5.66935 22.4391 7.19407C23.6012 8.7188 24.2306 10.5828 24.2307 12.4999V18.3712L26.5207 21.8062C26.6463 21.9944 26.7184 22.2132 26.7294 22.4393C26.7404 22.6653 26.6898 22.8901 26.583 23.0896C26.4762 23.2891 26.3173 23.456 26.1232 23.5722C25.929 23.6885 25.707 23.7499 25.4807 23.7499H19.8119C19.6614 24.7913 19.1407 25.7436 18.3453 26.4323C17.5498 27.1211 16.5329 27.5002 15.4807 27.5002C14.4285 27.5002 13.4115 27.1211 12.616 26.4323C11.8206 25.7436 11.2999 24.7913 11.1494 23.7499H5.48066C5.25435 23.7499 5.03228 23.6885 4.83814 23.5722C4.644 23.456 4.48508 23.2891 4.37831 23.0896C4.27155 22.8901 4.22096 22.6653 4.23194 22.4393C4.24292 22.2132 4.31506 21.9944 4.44066 21.8062L6.73066 18.3712V12.4999C6.73066 8.4699 9.45566 5.07491 13.1632 4.05991ZM13.7132 23.7499C13.8423 24.1157 14.0816 24.4325 14.3983 24.6565C14.715 24.8806 15.0934 25.0009 15.4813 25.0009C15.8692 25.0009 16.2476 24.8806 16.5643 24.6565C16.8809 24.4325 17.1203 24.1157 17.2494 23.7499H13.7119H13.7132ZM15.4807 6.24991C13.8231 6.24991 12.2333 6.90839 11.0612 8.08049C9.88914 9.25259 9.23066 10.8423 9.23066 12.4999V18.7499C9.23071 18.9968 9.15764 19.2382 9.02066 19.4437L7.81691 21.2499H23.1432L21.9394 19.4437C21.8029 19.2381 21.7302 18.9967 21.7307 18.7499V12.4999C21.7307 10.8423 21.0722 9.25259 19.9001 8.08049C18.728 6.90839 17.1383 6.24991 15.4807 6.24991Z" fill="#A4A4A4"/>
<circle cx="21.7305" cy="7.5" r="4.375" fill="#FF1A1A" stroke="#212121" stroke-width="1.25"/>
</svg>
