<svg width="31" height="30" viewBox="0 0 31 30" fill="none" xmlns="http://www.w3.org/2000/svg">
<path d="M13.1827 4.05991C13.3695 3.5983 13.6898 3.20298 14.1027 2.92462C14.5156 2.64627 15.0022 2.49756 15.5002 2.49756C15.9981 2.49756 16.4848 2.64627 16.8977 2.92462C17.3106 3.20298 17.6309 3.5983 17.8177 4.05991C19.6661 4.56826 21.2966 5.66935 22.4586 7.19407C23.6207 8.7188 24.2501 10.5828 24.2502 12.4999V18.3712L26.5402 21.8062C26.6658 21.9944 26.7379 22.2132 26.7489 22.4393C26.7599 22.6653 26.7093 22.8901 26.6025 23.0896C26.4958 23.2891 26.3368 23.456 26.1427 23.5722C25.9486 23.6885 25.7265 23.7499 25.5002 23.7499H19.8314C19.6809 24.7913 19.1603 25.7436 18.3648 26.4323C17.5694 27.1211 16.5524 27.5002 15.5002 27.5002C14.448 27.5002 13.431 27.1211 12.6356 26.4323C11.8401 25.7436 11.3194 24.7913 11.1689 23.7499H5.50019C5.27388 23.7499 5.05182 23.6885 4.85768 23.5722C4.66354 23.456 4.50461 23.2891 4.39784 23.0896C4.29108 22.8901 4.24049 22.6653 4.25147 22.4393C4.26245 22.2132 4.33459 21.9944 4.46019 21.8062L6.75019 18.3712V12.4999C6.75019 8.4699 9.47519 5.07491 13.1827 4.05991ZM13.7327 23.7499C13.8618 24.1157 14.1012 24.4325 14.4178 24.6565C14.7345 24.8806 15.1129 25.0009 15.5008 25.0009C15.8887 25.0009 16.2671 24.8806 16.5838 24.6565C16.9005 24.4325 17.1398 24.1157 17.2689 23.7499H13.7314H13.7327ZM15.5002 6.24991C13.8426 6.24991 12.2529 6.90839 11.0808 8.08049C9.90867 9.25259 9.25019 10.8423 9.25019 12.4999V18.7499C9.25024 18.9968 9.17717 19.2382 9.04019 19.4437L7.83644 21.2499H23.1627L21.9589 19.4437C21.8224 19.2381 21.7498 18.9967 21.7502 18.7499V12.4999C21.7502 10.8423 21.0917 9.25259 19.9196 8.08049C18.7475 6.90839 17.1578 6.24991 15.5002 6.24991Z" fill="#949494"/>
<circle cx="21.75" cy="7.5" r="4.375" fill="#FF0000" stroke="#E8E8E8" stroke-width="1.25"/>
</svg>
