<svg width="28" height="29" viewBox="0 0 28 29" fill="none" xmlns="http://www.w3.org/2000/svg">
<path d="M14.2534 14.1081C14.2196 14.1081 14.197 14.1081 14.1631 14.1081C14.1066 14.0968 14.0276 14.0968 13.9598 14.1081C10.685 14.0065 8.21198 11.4318 8.21198 8.25861C8.21198 5.02897 10.8431 2.39783 14.0728 2.39783C17.3024 2.39783 19.9335 5.02897 19.9335 8.25861C19.9223 11.4318 17.4379 14.0065 14.2873 14.1081C14.276 14.1081 14.2647 14.1081 14.2534 14.1081ZM14.0728 4.0917C11.7804 4.0917 9.90584 5.96624 9.90584 8.25861C9.90584 10.5171 11.6675 12.3352 13.9147 12.4142C13.9711 12.4029 14.1292 12.4029 14.276 12.4142C16.4893 12.3126 18.2284 10.4945 18.2397 8.25861C18.2397 5.96624 16.3651 4.0917 14.0728 4.0917Z" fill="#EAEAEA"/>
<path d="M14.2647 26.4509C12.0514 26.4509 9.82676 25.8862 8.14419 24.757C6.57454 23.7181 5.71631 22.2952 5.71631 20.7482C5.71631 19.2011 6.57454 17.767 8.14419 16.7168C11.5319 14.4696 17.0201 14.4696 20.3852 16.7168C21.9436 17.7557 22.8131 19.1785 22.8131 20.7256C22.8131 22.2727 21.9549 23.7068 20.3852 24.757C18.6913 25.8862 16.478 26.4509 14.2647 26.4509ZM9.08146 18.1396C7.99739 18.8623 7.41018 19.7883 7.41018 20.7595C7.41018 21.7193 8.00868 22.6453 9.08146 23.3567C11.8933 25.2426 16.6361 25.2426 19.4479 23.3567C20.532 22.634 21.1192 21.708 21.1192 20.7369C21.1192 19.777 20.5207 18.851 19.4479 18.1396C16.6361 16.2651 11.8933 16.2651 9.08146 18.1396Z" fill="#EAEAEA"/>
</svg>
