<svg width="28" height="28" viewBox="0 0 28 28" fill="none" xmlns="http://www.w3.org/2000/svg">
<path d="M14.0732 18.0776C11.7356 18.0776 9.8385 16.1805 9.8385 13.8429C9.8385 11.5054 11.7356 9.60828 14.0732 9.60828C16.4107 9.60828 18.3078 11.5054 18.3078 13.8429C18.3078 16.1805 16.4107 18.0776 14.0732 18.0776ZM14.0732 11.3021C12.6729 11.3021 11.5324 12.4427 11.5324 13.8429C11.5324 15.2432 12.6729 16.3838 14.0732 16.3838C15.4734 16.3838 16.614 15.2432 16.614 13.8429C16.614 12.4427 15.4734 11.3021 14.0732 11.3021Z" fill="#EAEAEA"/>
<path d="M17.6981 25.3499C17.4609 25.3499 17.2238 25.316 16.9866 25.2596C16.2865 25.0676 15.6993 24.6272 15.3266 24.0061L15.1911 23.7803C14.5249 22.6284 13.6102 22.6284 12.9439 23.7803L12.8197 23.9948C12.4471 24.6272 11.8598 25.0789 11.1597 25.2596C10.4483 25.4515 9.71428 25.3499 9.0932 24.9773L7.15089 23.8593C6.46205 23.4641 5.96519 22.8204 5.75063 22.0412C5.54736 21.262 5.649 20.4603 6.04423 19.7714C6.37171 19.1955 6.46205 18.6761 6.27008 18.3486C6.07811 18.0211 5.59253 17.8291 4.92628 17.8291C3.27758 17.8291 1.93378 16.4853 1.93378 14.8366V12.8492C1.93378 11.2005 3.27758 9.85666 4.92628 9.85666C5.59253 9.85666 6.07811 9.66469 6.27008 9.3372C6.46205 9.00972 6.38301 8.49027 6.04423 7.91435C5.649 7.22551 5.54736 6.41246 5.75063 5.64457C5.95389 4.86539 6.45076 4.22172 7.15089 3.82648L9.10449 2.70853C10.3805 1.95194 12.0631 2.39234 12.831 3.69097L12.9665 3.91682C13.6328 5.06865 14.5475 5.06865 15.2137 3.91682L15.3379 3.70227C16.1058 2.39234 17.7884 1.95194 19.0757 2.71982L21.018 3.83778C21.7069 4.23301 22.2037 4.87668 22.4183 5.65586C22.6216 6.43504 22.5199 7.23681 22.1247 7.92565C21.7972 8.50156 21.7069 9.02102 21.8988 9.3485C22.0908 9.67598 22.5764 9.86795 23.2426 9.86795C24.8913 9.86795 26.2352 11.2118 26.2352 12.8605V14.8479C26.2352 16.4966 24.8913 17.8404 23.2426 17.8404C22.5764 17.8404 22.0908 18.0324 21.8988 18.3599C21.7069 18.6874 21.7859 19.2068 22.1247 19.7827C22.5199 20.4716 22.6329 21.2846 22.4183 22.0525C22.215 22.8317 21.7182 23.4754 21.018 23.8706L19.0644 24.9886C18.6353 25.2257 18.1723 25.3499 17.6981 25.3499ZM14.0732 21.1717C15.0782 21.1717 16.0155 21.8041 16.6591 22.922L16.7834 23.1366C16.9189 23.3737 17.1447 23.5431 17.4157 23.6109C17.6868 23.6786 17.9578 23.6448 18.1836 23.5092L20.1372 22.38C20.4308 22.2106 20.6567 21.9283 20.747 21.5895C20.8374 21.2507 20.7922 20.9007 20.6228 20.6071C19.9791 19.5004 19.9001 18.3599 20.3969 17.4904C20.8938 16.6208 21.9214 16.124 23.2088 16.124C23.9315 16.124 24.5074 15.5481 24.5074 14.8253V12.8379C24.5074 12.1264 23.9315 11.5392 23.2088 11.5392C21.9214 11.5392 20.8938 11.0424 20.3969 10.1728C19.9001 9.30333 19.9791 8.16279 20.6228 7.05613C20.7922 6.76252 20.8374 6.41246 20.747 6.07368C20.6567 5.73491 20.4421 5.46389 20.1485 5.28321L18.1949 4.16526C17.7093 3.87165 17.0657 4.04104 16.7721 4.53791L16.6479 4.75247C16.0042 5.87042 15.0669 6.5028 14.0619 6.5028C13.0568 6.5028 12.1196 5.87042 11.4759 4.75247L11.3517 4.52662C11.0694 4.05233 10.437 3.88295 9.95142 4.16526L7.99783 5.2945C7.70422 5.46389 7.47837 5.7462 7.38803 6.08498C7.2977 6.42375 7.34287 6.77382 7.51225 7.06742C8.15592 8.17408 8.23497 9.31462 7.7381 10.1841C7.24123 11.0537 6.21362 11.5505 4.92628 11.5505C4.20356 11.5505 3.62765 12.1264 3.62765 12.8492V14.8366C3.62765 15.5481 4.20356 16.1353 4.92628 16.1353C6.21362 16.1353 7.24123 16.6321 7.7381 17.5017C8.23497 18.3712 8.15592 19.5117 7.51225 20.6184C7.34287 20.912 7.2977 21.262 7.38803 21.6008C7.47837 21.9396 7.69293 22.2106 7.98654 22.3913L9.94013 23.5092C10.1773 23.656 10.4596 23.6899 10.7193 23.6222C10.9903 23.5544 11.2162 23.3737 11.363 23.1366L11.4872 22.922C12.1309 21.8154 13.0681 21.1717 14.0732 21.1717Z" fill="#EAEAEA"/>
</svg>
