<svg width="31" height="30" viewBox="0 0 31 30" fill="none" xmlns="http://www.w3.org/2000/svg">
<path d="M15.4805 23.75C20.313 23.75 24.2305 19.8325 24.2305 15C24.2305 10.1675 20.313 6.25 15.4805 6.25C10.648 6.25 6.73047 10.1675 6.73047 15C6.73047 19.8325 10.648 23.75 15.4805 23.75Z" fill="#FFEB33"/>
<path d="M15.4805 28.7C14.793 28.7 14.2305 28.1875 14.2305 27.5V27.4C14.2305 26.7125 14.793 26.15 15.4805 26.15C16.168 26.15 16.7305 26.7125 16.7305 27.4C16.7305 28.0875 16.168 28.7 15.4805 28.7ZM24.4055 25.175C24.0805 25.175 23.768 25.05 23.518 24.8125L23.3555 24.65C22.868 24.1625 22.868 23.375 23.3555 22.8875C23.843 22.4 24.6305 22.4 25.118 22.8875L25.2805 23.05C25.768 23.5375 25.768 24.325 25.2805 24.8125C25.043 25.05 24.7305 25.175 24.4055 25.175ZM6.55547 25.175C6.23047 25.175 5.91797 25.05 5.66797 24.8125C5.18047 24.325 5.18047 23.5375 5.66797 23.05L5.83047 22.8875C6.31797 22.4 7.10547 22.4 7.59297 22.8875C8.08047 23.375 8.08047 24.1625 7.59297 24.65L7.43047 24.8125C7.19297 25.05 6.86797 25.175 6.55547 25.175ZM27.9805 16.25H27.8805C27.193 16.25 26.6305 15.6875 26.6305 15C26.6305 14.3125 27.193 13.75 27.8805 13.75C28.568 13.75 29.1805 14.3125 29.1805 15C29.1805 15.6875 28.668 16.25 27.9805 16.25ZM3.08047 16.25H2.98047C2.29297 16.25 1.73047 15.6875 1.73047 15C1.73047 14.3125 2.29297 13.75 2.98047 13.75C3.66797 13.75 4.28047 14.3125 4.28047 15C4.28047 15.6875 3.76797 16.25 3.08047 16.25ZM24.243 7.4875C23.918 7.4875 23.6055 7.3625 23.3555 7.125C22.868 6.6375 22.868 5.85 23.3555 5.3625L23.518 5.2C24.0055 4.7125 24.793 4.7125 25.2805 5.2C25.768 5.6875 25.768 6.475 25.2805 6.9625L25.118 7.125C24.8805 7.3625 24.568 7.4875 24.243 7.4875ZM6.71797 7.4875C6.39297 7.4875 6.08047 7.3625 5.83047 7.125L5.66797 6.95C5.18047 6.4625 5.18047 5.675 5.66797 5.1875C6.15547 4.7 6.94297 4.7 7.43047 5.1875L7.59297 5.35C8.08047 5.8375 8.08047 6.625 7.59297 7.1125C7.35547 7.3625 7.03047 7.4875 6.71797 7.4875ZM15.4805 3.8C14.793 3.8 14.2305 3.2875 14.2305 2.6V2.5C14.2305 1.8125 14.793 1.25 15.4805 1.25C16.168 1.25 16.7305 1.8125 16.7305 2.5C16.7305 3.1875 16.168 3.8 15.4805 3.8Z" fill="white"/>
</svg>
