<svg xmlns="http://www.w3.org/2000/svg" width="23" height="23" viewBox="0 0 23 23" fill="none">
  <path d="M11.61 19.3876C9.66084 19.3876 7.79151 18.6133 6.41324 17.235C5.03498 15.8567 4.26067 13.9874 4.26067 12.0382C4.26067 10.0891 5.03498 8.21973 6.41324 6.84147C7.79151 5.4632 9.66084 4.6889 11.61 4.6889C13.5592 4.6889 15.4285 5.4632 16.8068 6.84147C18.185 8.21973 18.9593 10.0891 18.9593 12.0382C18.9593 13.9874 18.185 15.8567 16.8068 17.235C15.4285 18.6133 13.5592 19.3876 11.61 19.3876ZM11.61 2.85156C10.4036 2.85156 9.209 3.08918 8.09442 3.55086C6.97984 4.01253 5.96711 4.68921 5.11405 5.54227C3.39122 7.26511 2.42334 9.60177 2.42334 12.0382C2.42334 14.4747 3.39122 16.8113 5.11405 18.5342C5.96711 19.3872 6.97984 20.0639 8.09442 20.5256C9.209 20.9873 10.4036 21.2249 11.61 21.2249C14.0465 21.2249 16.3831 20.257 18.106 18.5342C19.8288 16.8113 20.7967 14.4747 20.7967 12.0382C20.7967 10.8318 20.5591 9.63722 20.0974 8.52264C19.6357 7.40807 18.959 6.39534 18.106 5.54227C17.2529 4.68921 16.2402 4.01253 15.1256 3.55086C14.011 3.08918 12.8164 2.85156 11.61 2.85156Z" fill="black"/>
</svg>