<svg width="27" height="27" viewBox="0 0 27 27" fill="none" xmlns="http://www.w3.org/2000/svg">
<path d="M12.7455 4.53711H5.21239C4.64157 4.53711 4.09412 4.76387 3.69048 5.1675C3.28685 5.57114 3.06009 6.11859 3.06009 6.68941V21.7555C3.06009 22.3264 3.28685 22.8738 3.69048 23.2775C4.09412 23.6811 4.64157 23.9079 5.21239 23.9079H20.2785C20.8494 23.9079 21.3968 23.6811 21.8004 23.2775C22.2041 22.8738 22.4308 22.3264 22.4308 21.7555V14.2225" stroke="black" stroke-width="1.07615" stroke-linecap="round" stroke-linejoin="round"/>
<path d="M20.8166 2.92254C21.2447 2.49442 21.8254 2.25391 22.4308 2.25391C23.0363 2.25391 23.6169 2.49442 24.0451 2.92254C24.4732 3.35066 24.7137 3.93132 24.7137 4.53677C24.7137 5.14222 24.4732 5.72288 24.0451 6.151L13.8216 16.3744L9.517 17.4506L10.5932 13.146L20.8166 2.92254Z" stroke="black" stroke-width="1.07615" stroke-linecap="round" stroke-linejoin="round"/>
</svg>
