<svg width="27" height="27" viewBox="0 0 27 27" fill="none" xmlns="http://www.w3.org/2000/svg">
<path d="M4.18234 6.68848H6.33465H23.5531" stroke="black" stroke-width="1.07615" stroke-linecap="round" stroke-linejoin="round"/>
<path d="M21.4008 6.68938V21.7555C21.4008 22.3263 21.174 22.8738 20.7704 23.2774C20.3668 23.6811 19.8193 23.9078 19.2485 23.9078H8.48696C7.91613 23.9078 7.36869 23.6811 6.96505 23.2774C6.56142 22.8738 6.33466 22.3263 6.33466 21.7555V6.68938M9.56311 6.68938V4.53707C9.56311 3.96624 9.78987 3.4188 10.1935 3.01516C10.5971 2.61153 11.1446 2.38477 11.7154 2.38477H16.02C16.5909 2.38477 17.1383 2.61153 17.5419 3.01516C17.9456 3.4188 18.1723 3.96624 18.1723 4.53707V6.68938" stroke="black" stroke-width="1.07615" stroke-linecap="round" stroke-linejoin="round"/>
<path d="M11.7154 12.0693V18.5263" stroke="black" stroke-width="1.07615" stroke-linecap="round" stroke-linejoin="round"/>
<path d="M16.02 12.0693V18.5263" stroke="black" stroke-width="1.07615" stroke-linecap="round" stroke-linejoin="round"/>
</svg>
